<?xml version="1.0" ?><!DOCTYPE svg  PUBLIC '-//W3C//DTD SVG 1.1//EN'  'http://www.w3.org/Graphics/SVG/1.1/DTD/svg11.dtd'><svg height="512px" style="shape-rendering:geometricPrecision; text-rendering:geometricPrecision; image-rendering:optimizeQuality; fill-rule:evenodd; clip-rule:evenodd" version="1.1" viewBox="0 0 512 512" width="512px" xml:space="preserve" xmlns="http://www.w3.org/2000/svg" xmlns:xlink="http://www.w3.org/1999/xlink" xmlns:xodm="http://www.corel.com/coreldraw/odm/2003"><defs><style type="text/css">
   <![CDATA[
    .fil0 {fill:black}
   ]]>
  </style></defs><g id="Layer_x0020_1"><path class="fil0" d="M256 0c141.39,0 256,114.61 256,256 0,141.39 -114.61,256 -256,256 -141.39,0 -256,-114.61 -256,-256 0,-141.39 114.61,-256 256,-256zm-98.61 136.61l-15.57 41.53 0 166.09 57.07 0 0 31.16 31.16 0 31.13 -31.16 46.71 0 62.29 -62.26 0 -145.36 -212.79 0zm20.75 20.75l171.28 0 0 114.2 -36.34 36.34 -57.08 0 -31.12 31.12 0 -31.12 -46.74 0 0 -150.54zm57.1 103.83l20.76 0 0 -62.28 -20.76 0 0 62.28zm57.08 0l20.76 0 0 -62.28 -20.76 0 0 62.28z"/></g></svg>