<?xml version="1.0" ?><svg height="60px" version="1.1" viewBox="0 0 60 60" width="60px" xmlns="http://www.w3.org/2000/svg" xmlns:sketch="http://www.bohemiancoding.com/sketch/ns" xmlns:xlink="http://www.w3.org/1999/xlink"><title/><defs/><g fill="none" fill-rule="evenodd" id="black" stroke="none" stroke-width="1"><g id="deviantart"><path d="M30,60 C46.5685433,60 60,46.5685433 60,30 C60,13.4314567 46.5685433,0 30,0 C13.4314567,0 0,13.4314567 0,30 C0,46.5685433 13.4314567,60 30,60 Z" fill="#000000"/><path d="M23.6437219,23.2287431 C23.5295167,23.2457735 23.4292602,23.2719423 23.315055,23.2906342 L21.4276175,19.6153846 L15.8306898,20.225157 L18.1113071,24.6979291 C6.30981007,29.3692511 11.5388401,40.3846154 11.5388401,40.3846154 L29.5466499,35.415884 L24.5983381,25.7874612 C33.478884,23.3408947 40.8943773,28.3428562 40.8943773,28.3428562 L34.7817825,29.92544 L33.0220631,26.7918411 C31.3660874,26.4973393 29.4812653,26.407618 27.4722123,26.7287039 L31.6346004,34.836434 L49.6153846,29.8718564 C49.6153846,29.871441 43.0947894,20.0544374 23.6437219,23.2287431 L23.6437219,23.2287431 Z M16.4113057,34.678591 C16.4113057,34.678591 14.6764324,31.0058337 19.7258725,27.8610197 L22.411003,33.1279913 L16.4113057,34.678591 L16.4113057,34.678591 Z" fill="#FFFFFF"/></g></g></svg>