<?xml version="1.0" ?><!DOCTYPE svg  PUBLIC '-//W3C//DTD SVG 1.1//EN'  'http://www.w3.org/Graphics/SVG/1.1/DTD/svg11.dtd'><svg aria-labelledby="simpleicons-upwork-icon" enable-background="new 0 0 24 24" height="3.33333in" role="img" style="shape-rendering:geometricPrecision; text-rendering:geometricPrecision; image-rendering:optimizeQuality; fill-rule:evenodd; clip-rule:evenodd" version="1.1" viewBox="0 0 3333 3333" width="3.33333in" xml:space="preserve" xmlns="http://www.w3.org/2000/svg" xmlns:xlink="http://www.w3.org/1999/xlink"><defs><style type="text/css">
   <![CDATA[
    .fil0 {fill:black}
    .fil1 {fill:white}
   ]]>
  </style></defs><g id="Layer_x0020_1"><circle class="fil0" cx="1667" cy="1667" r="1667"/><g id="_606153520"><path class="fil1" d="M2114 1852c-75,0 -146,-32 -210,-84l16 -73 1 -3c14,-78 57,-209 193,-209 102,0 184,83 184,185 0,101 -82,184 -184,184l0 0zm0 -555c-173,0 -307,112 -362,298 -83,-125 -147,-276 -183,-402l-187 0 0 485c0,96 -78,173 -174,174 -95,-1 -173,-78 -173,-174l0 -485 -187 0 0 485c0,199 162,361 360,361 199,0 361,-162 361,-361l0 -81c36,75 80,152 134,219l-114 537 191 0 83 -389c72,46 156,75 251,75 205,0 371,-167 371,-371 0,-205 -166,-371 -371,-371l0 0z"/></g></g></svg>