<svg width="40" height="40" viewBox="0 0 40 40" fill="none" xmlns="http://www.w3.org/2000/svg">
<rect width="40" height="40" fill="#0D0D0D"/>
<path d="M6.23448 33.5811C5.90305 33.5811 5.61895 33.4646 5.38221 33.2315C5.14547 32.9984 5.02892 32.7143 5.03256 32.3792C5.02892 32.0514 5.14547 31.771 5.38221 31.5379C5.61895 31.3048 5.90305 31.1882 6.23448 31.1882C6.555 31.1882 6.83362 31.3048 7.07037 31.5379C7.31075 31.771 7.43277 32.0514 7.43641 32.3792C7.43277 32.6014 7.37449 32.8035 7.26158 32.9856C7.15232 33.1677 7.00663 33.3134 6.82452 33.4227C6.64605 33.5283 6.44937 33.5811 6.23448 33.5811ZM11.456 22.2721V33.4609H9.47831V22.2721H11.456ZM15.4674 28.544V33.4609H13.4897V25.0693H15.38V26.4952H15.4784C15.6714 26.0254 15.9792 25.6521 16.4017 25.3753C16.8278 25.0985 17.3541 24.9601 17.9806 24.9601C18.5597 24.9601 19.0641 25.0839 19.4939 25.3316C19.9273 25.5792 20.2624 25.938 20.4991 26.4078C20.7395 26.8777 20.8579 27.4477 20.8542 28.1178V33.4609H18.8765V28.4238C18.8765 27.8629 18.7308 27.424 18.4395 27.1071C18.1517 26.7903 17.7529 26.6318 17.243 26.6318C16.897 26.6318 16.5892 26.7083 16.3197 26.8613C16.0538 27.0106 15.8444 27.2273 15.6914 27.5114C15.5421 27.7955 15.4674 28.1397 15.4674 28.544ZM24.6676 30.8276L24.6622 28.4402H24.979L27.9948 25.0693H30.3057L26.5962 29.1996H26.1864L24.6676 30.8276ZM22.8647 33.4609V22.2721H24.8424V33.4609H22.8647ZM28.1313 33.4609L25.3997 29.6421L26.7327 28.249L30.4969 33.4609H28.1313ZM31.6237 33.4609V25.0693H33.5414V26.4679H33.6288C33.7817 25.9835 34.044 25.6102 34.4155 25.348C34.7906 25.0821 35.2186 24.9491 35.6994 24.9491C35.8086 24.9491 35.9306 24.9546 36.0654 24.9655C36.2038 24.9728 36.3185 24.9856 36.4096 25.0038V26.823C36.3258 26.7939 36.1929 26.7684 36.0108 26.7466C35.8323 26.7211 35.6593 26.7083 35.4918 26.7083C35.1312 26.7083 34.807 26.7866 34.5193 26.9432C34.2352 27.0962 34.0112 27.3093 33.8473 27.5824C33.6834 27.8556 33.6015 28.1707 33.6015 28.5276V33.4609H31.6237Z" fill="white"/>
</svg>
